<?xml version="1.0" encoding="iso-8859-1"?>
<!-- Generator: Adobe Illustrator 21.0.0, SVG Export Plug-In . SVG Version: 6.00 Build 0)  -->
<svg xmlns="http://www.w3.org/2000/svg" xmlns:xlink="http://www.w3.org/1999/xlink" version="1.1" id="Capa_1" x="0px" y="0px" viewBox="0 0 512 512" style="enable-background:new 0 0 512 512;" xml:space="preserve" width="512" height="512">
<g>
	<polygon style="fill-rule:evenodd;clip-rule:evenodd;" points="321.849,289.666 190.151,289.666 256,356.18  "/>
	<path style="fill-rule:evenodd;clip-rule:evenodd;" d="M266.66,388.053c-2.817,2.846-6.655,4.447-10.66,4.447   s-7.842-1.602-10.66-4.447l-97.403-98.386H37.856l15.822,108.642c5.417,37.195,36.629,64.191,74.217,64.191h256.21   c37.587,0,68.8-26.996,74.217-64.191l15.822-108.642H364.063L266.66,388.053z"/>
	<path style="fill-rule:evenodd;clip-rule:evenodd;" d="M482,199.667H286V79.5c0-16.569-13.431-30-30-30h0   c-16.569,0-30,13.431-30,30v120.167H30c-16.569,0-30,13.432-30,30v0c0,16.568,13.431,30,30,30h452c16.569,0,30-13.431,30-30v0   C512,213.098,498.569,199.667,482,199.667z"/>
</g>















</svg>
