<?xml version="1.0" encoding="iso-8859-1"?>
<!-- Generator: Adobe Illustrator 21.0.0, SVG Export Plug-In . SVG Version: 6.00 Build 0)  -->
<svg xmlns="http://www.w3.org/2000/svg" xmlns:xlink="http://www.w3.org/1999/xlink" version="1.1" id="Capa_1" x="0px" y="0px" viewBox="0 0 512.001 512.001" style="enable-background:new 0 0 512.001 512.001;" xml:space="preserve" width="512" height="512">
<path d="M512.001,234c0-24.813-20.187-45-45-45H301V84c0-24.813-20.187-45-45-45c-24.813,0-45,20.187-45,45v105H45  c-24.813,0-45,20.187-45,45c0,21.216,14.763,39.038,34.552,43.762l19.127,131.046C59.096,446.004,90.309,473,127.896,473h256.21  c37.587,0,68.8-26.996,74.217-64.191l19.083-131.036C497.216,273.064,512.001,255.232,512.001,234z M241,84c0-8.271,6.729-15,15-15  c8.271,0,15,6.729,15,15v105h-30V84z M368.535,219.009L256,332.68L143.466,219.009H368.535z M45,219h56.243l29.7,30H45  c-8.271,0-15-6.729-15-15S36.729,219,45,219z M428.636,404.485c-3.25,22.317-21.978,38.516-44.53,38.516h-256.21  c-22.552,0-41.28-16.198-44.531-38.52L65.05,279h95.593l84.698,85.553c2.817,2.846,6.655,4.447,10.66,4.447s7.842-1.602,10.66-4.447  L351.358,279h95.552L428.636,404.485z M467.001,249h-85.943l29.7-30h56.243c8.271,0,15,6.729,15,15S475.272,249,467.001,249z"/>















</svg>
