<?xml version="1.0" encoding="iso-8859-1"?>
<!-- Generator: Adobe Illustrator 19.0.0, SVG Export Plug-In . SVG Version: 6.00 Build 0)  -->
<svg version="1.1" id="Capa_1" xmlns="http://www.w3.org/2000/svg" xmlns:xlink="http://www.w3.org/1999/xlink" x="0px" y="0px"
	 viewBox="0 0 512 512" style="enable-background:new 0 0 512 512;" xml:space="preserve">
<g>
	<g>
		<path d="M496.624,90.93H15.376C6.884,90.93,0,97.814,0,106.306v299.388c0,8.492,6.884,15.376,15.376,15.376h481.248
			c8.492,0,15.376-6.884,15.376-15.376V106.306C512,97.814,505.116,90.93,496.624,90.93z M481.248,390.318H30.752V121.682h450.496
			V390.318z"/>
	</g>
</g>
<g>
	<g>
		<path d="M125.067,148.299c-29.089,0-52.754,23.666-52.754,52.754c0,29.088,23.666,52.754,52.754,52.754
			c29.088,0,52.754-23.666,52.754-52.754C177.821,171.965,154.156,148.299,125.067,148.299z M125.067,223.055
			c-12.132,0-22.002-9.87-22.002-22.002s9.87-22.002,22.002-22.002s22.002,9.87,22.002,22.002S137.199,223.055,125.067,223.055z"/>
	</g>
</g>
<g>
	<g>
		<path d="M228.231,265.667c-27.028,0-49.017,21.989-49.017,49.017s21.989,49.017,49.017,49.017
			c27.029,0,49.017-21.989,49.017-49.017S255.259,265.667,228.231,265.667z M228.231,332.949c-10.071,0-18.265-8.193-18.265-18.265
			c0-10.071,8.193-18.265,18.265-18.265c10.072,0,18.265,8.193,18.265,18.265C246.496,324.755,238.303,332.949,228.231,332.949z"/>
	</g>
</g>
<g>
	<g>
		<path d="M383.943,148.831c-30.738,0-55.745,25.008-55.745,55.745c0,30.737,25.008,55.744,55.745,55.744
			c30.737,0,55.744-25.008,55.744-55.744C439.687,173.839,414.68,148.831,383.943,148.831z M383.943,229.568
			c-13.781,0-24.993-11.211-24.993-24.992s11.212-24.993,24.993-24.993c13.78,0,24.992,11.212,24.992,24.993
			C408.935,218.356,397.723,229.568,383.943,229.568z"/>
	</g>
</g>
<g>
	<g>
		<path d="M403.164,307.532c-8.043,0-15.748,7.072-15.376,15.376c0.373,8.331,6.756,15.376,15.376,15.376
			c8.043,0,15.748-7.072,15.376-15.376C418.167,314.577,411.784,307.532,403.164,307.532z"/>
	</g>
</g>
<g>
	<g>
		<path d="M258.882,195.395c-8.043,0-15.748,7.072-15.376,15.376c0.373,8.331,6.756,15.376,15.376,15.376
			c8.043,0,15.748-7.072,15.376-15.376C273.885,202.44,267.502,195.395,258.882,195.395z"/>
	</g>
</g>
<g>
	<g>
		<path d="M98.155,309.774c-8.043,0-15.748,7.072-15.376,15.376c0.373,8.331,6.755,15.376,15.376,15.376
			c8.043,0,15.748-7.072,15.376-15.376C113.158,316.819,106.775,309.774,98.155,309.774z"/>
	</g>
</g>
<g>
</g>
<g>
</g>
<g>
</g>
<g>
</g>
<g>
</g>
<g>
</g>
<g>
</g>
<g>
</g>
<g>
</g>
<g>
</g>
<g>
</g>
<g>
</g>
<g>
</g>
<g>
</g>
<g>
</g>
</svg>
