<svg width="512" height="512" viewBox="0 0 512 512" fill="none" xmlns="http://www.w3.org/2000/svg">
<path d="M496.624 90.93H15.376C6.884 90.93 0 97.814 0 106.306V405.694C0 414.186 6.884 421.07 15.376 421.07H496.624C505.116 421.07 512 414.186 512 405.694V106.306C512 97.814 505.116 90.93 496.624 90.93ZM481.248 390.318H30.752V121.682H481.248V390.318Z" fill="black"/>
<path d="M487 111H24V398H487V111Z" fill="#FFDF8D" stroke="black"/>
<path d="M125.067 148.299C95.978 148.299 72.313 171.965 72.313 201.053C72.313 230.141 95.979 253.807 125.067 253.807C154.155 253.807 177.821 230.141 177.821 201.053C177.821 171.965 154.156 148.299 125.067 148.299ZM125.067 223.055C112.935 223.055 103.065 213.185 103.065 201.053C103.065 188.921 112.935 179.051 125.067 179.051C137.199 179.051 147.069 188.921 147.069 201.053C147.069 213.185 137.199 223.055 125.067 223.055Z" fill="black"/>
<path d="M228.231 265.667C201.203 265.667 179.214 287.656 179.214 314.684C179.214 341.712 201.203 363.701 228.231 363.701C255.26 363.701 277.248 341.712 277.248 314.684C277.248 287.656 255.259 265.667 228.231 265.667ZM228.231 332.949C218.16 332.949 209.966 324.756 209.966 314.684C209.966 304.613 218.159 296.419 228.231 296.419C238.303 296.419 246.496 304.612 246.496 314.684C246.496 324.755 238.303 332.949 228.231 332.949Z" fill="black"/>
<path d="M383.943 148.831C353.205 148.831 328.198 173.839 328.198 204.576C328.198 235.313 353.206 260.32 383.943 260.32C414.68 260.32 439.687 235.312 439.687 204.576C439.687 173.839 414.68 148.831 383.943 148.831ZM383.943 229.568C370.162 229.568 358.95 218.357 358.95 204.576C358.95 190.795 370.162 179.583 383.943 179.583C397.723 179.583 408.935 190.795 408.935 204.576C408.935 218.356 397.723 229.568 383.943 229.568Z" fill="black"/>
<path d="M403.164 307.532C395.121 307.532 387.416 314.604 387.788 322.908C388.161 331.239 394.544 338.284 403.164 338.284C411.207 338.284 418.912 331.212 418.54 322.908C418.167 314.577 411.784 307.532 403.164 307.532Z" fill="black"/>
<path d="M258.882 195.395C250.839 195.395 243.134 202.467 243.506 210.771C243.879 219.102 250.262 226.147 258.882 226.147C266.925 226.147 274.63 219.075 274.258 210.771C273.885 202.44 267.502 195.395 258.882 195.395Z" fill="black"/>
<path d="M98.155 309.774C90.112 309.774 82.407 316.846 82.779 325.15C83.152 333.481 89.534 340.526 98.155 340.526C106.198 340.526 113.903 333.454 113.531 325.15C113.158 316.819 106.775 309.774 98.155 309.774Z" fill="black"/>
</svg>
