<svg width="512" height="512" viewBox="0 0 512 512" fill="none" xmlns="http://www.w3.org/2000/svg">
<g clip-path="url(#clip0)">
<path d="M205 180.5L152.5 267L232 355.5L380 292.5L448.5 255.5L495 180.5L484.5 101.5L430.5 40L347 19L256 61L205 180.5Z" fill="#FCCC52" stroke="black"/>
<path d="M466.327 45.666C437.302 16.638 399.931 0.429979 361.097 0.026979C321.023 -0.364021 281.994 16.331 251.175 47.106C223.202 75.041 202.576 113.14 194.588 151.633C185.833 193.801 165.675 231.622 136.29 261.007L135.014 262.282C132.165 265.131 130.562 268.995 130.562 273.025C130.562 277.055 132.162 280.919 135.012 283.769L141.741 290.498L84.038 348.201C75.149 343.211 64.957 340.645 54.632 340.969C38.914 341.457 24.508 348.24 14.066 360.066C-4.67303 381.292 -4.68902 413.316 14.031 434.556C24.098 445.982 37.985 452.755 53.134 453.628C55.856 453.785 58.198 456.127 58.354 458.85C59.226 473.996 65.999 487.883 77.425 497.952C88.038 507.305 101.343 511.981 114.65 511.981C127.972 511.981 141.297 507.292 151.916 497.917C163.743 487.475 170.526 473.068 171.014 457.351C171.334 447.022 168.772 436.835 163.781 427.944L221.484 370.241L228.218 376.975C231.184 379.941 235.073 381.425 238.96 381.425C242.846 381.425 246.733 379.943 249.699 376.98L250.982 375.698C280.353 346.327 318.19 326.165 360.402 317.39C398.834 309.4 436.883 288.812 464.789 260.905C495.627 230.068 512.392 191.021 511.994 150.958C511.608 112.123 495.39 74.73 466.327 45.666ZM133.039 415.715C127.106 421.647 127.106 431.266 133.039 437.199C138.168 442.329 140.869 449.15 140.644 456.405C140.418 463.652 137.279 470.306 131.805 475.139C122.194 483.624 107.129 483.632 97.51 475.156C92.221 470.495 89.088 464.084 88.686 457.105C87.638 438.879 73.103 424.343 54.877 423.295C47.895 422.893 41.484 419.758 36.824 414.47C28.348 404.851 28.356 389.787 36.842 380.175C41.674 374.702 48.327 371.563 55.574 371.337C55.855 371.329 56.135 371.324 56.414 371.324C63.356 371.324 69.85 374.011 74.781 378.941C80.712 384.873 90.331 384.874 96.265 378.941L163.225 311.982L200 348.756L133.039 415.715ZM443.305 239.417C419.826 262.896 386.523 280.923 354.218 287.639C310.713 296.682 271.225 316.425 239.227 345.013L166.972 272.759C195.575 240.747 215.313 201.275 224.336 157.807C231.052 125.453 249.111 92.106 272.645 68.605C322.993 18.327 395.413 17.716 444.841 67.15C494.304 116.614 493.658 189.064 443.305 239.417Z" fill="black"/>
</g>
<defs>
<clipPath id="clip0">
<rect width="511.999" height="511.999" fill="white"/>
</clipPath>
</defs>
</svg>
