<?xml version="1.0" encoding="iso-8859-1"?>
<!-- Generator: Adobe Illustrator 19.0.0, SVG Export Plug-In . SVG Version: 6.00 Build 0)  -->
<svg version="1.1" id="Capa_1" xmlns="http://www.w3.org/2000/svg" xmlns:xlink="http://www.w3.org/1999/xlink" x="0px" y="0px"
	 viewBox="0 0 511.999 511.999" style="enable-background:new 0 0 511.999 511.999;" xml:space="preserve">
<g>
	<g>
		<path d="M466.327,45.666C437.302,16.638,399.931,0.43,361.097,0.027c-40.074-0.391-79.103,16.304-109.922,47.079
			c-27.973,27.935-48.599,66.034-56.587,104.527c-8.755,42.168-28.913,79.989-58.298,109.374l-1.276,1.275
			c-2.849,2.849-4.452,6.713-4.452,10.743s1.6,7.894,4.45,10.744l6.729,6.729l-57.703,57.703c-8.889-4.99-19.081-7.556-29.406-7.232
			c-15.718,0.488-30.124,7.271-40.566,19.097c-18.739,21.226-18.755,53.25-0.035,74.49c10.067,11.426,23.954,18.199,39.103,19.072
			c2.722,0.157,5.064,2.499,5.22,5.222c0.872,15.146,7.645,29.033,19.071,39.102c10.613,9.353,23.918,14.029,37.225,14.029
			c13.322,0,26.647-4.689,37.266-14.064c11.827-10.442,18.61-24.849,19.098-40.566c0.32-10.329-2.242-20.516-7.233-29.407
			l57.703-57.703l6.734,6.734c2.966,2.966,6.855,4.45,10.742,4.45c3.886,0,7.773-1.482,10.739-4.445l1.283-1.282
			c29.371-29.371,67.208-49.533,109.42-58.308c38.432-7.99,76.481-28.578,104.387-56.485
			c30.838-30.837,47.603-69.884,47.205-109.947C511.608,112.123,495.39,74.73,466.327,45.666z M133.039,415.715
			c-5.933,5.932-5.933,15.551,0,21.484c5.129,5.13,7.83,11.951,7.605,19.206c-0.226,7.247-3.365,13.901-8.839,18.734
			c-9.611,8.485-24.676,8.493-34.295,0.017c-5.289-4.661-8.422-11.072-8.824-18.051c-1.048-18.226-15.583-32.762-33.809-33.81
			c-6.982-0.402-13.393-3.537-18.053-8.825c-8.476-9.619-8.468-24.683,0.018-34.295c4.832-5.473,11.485-8.612,18.732-8.838
			c0.281-0.008,0.561-0.013,0.84-0.013c6.942,0,13.436,2.687,18.367,7.617c5.931,5.932,15.55,5.933,21.484,0l66.96-66.959
			L200,348.756L133.039,415.715z M443.305,239.417c-23.479,23.479-56.782,41.506-89.087,48.222
			c-43.505,9.043-82.993,28.786-114.991,57.374l-72.255-72.254c28.603-32.012,48.341-71.484,57.364-114.952
			c6.716-32.354,24.775-65.701,48.309-89.202c50.348-50.278,122.768-50.889,172.196-1.455
			C494.304,116.614,493.658,189.064,443.305,239.417z"/>
	</g>
</g>
<g>
</g>
<g>
</g>
<g>
</g>
<g>
</g>
<g>
</g>
<g>
</g>
<g>
</g>
<g>
</g>
<g>
</g>
<g>
</g>
<g>
</g>
<g>
</g>
<g>
</g>
<g>
</g>
<g>
</g>
</svg>
