<svg id="Capa_1" enable-background="new 0 0 450.817 450.817" height="512" viewBox="0 0 450.817 450.817" width="512" xmlns="http://www.w3.org/2000/svg"><path d="m448.743 203.934-75.476-123.255c-1.72-2.805-4.375-4.937-7.512-5.983l-135.847-45.78c-2.917-.991-6.081-.991-8.998 0l-135.847 45.78c-3.137 1.046-5.792 3.178-7.512 5.983l-75.476 123.255c-2.669 4.348-2.765 9.796-.275 14.252 2.49 4.444 7.182 7.195 12.286 7.195h14.088l.003 183.149c0 3.728 1.455 7.318 4.096 9.959 2.642 2.642 6.219 4.127 9.961 4.127l366.376.027c3.742 0 7.319-1.486 9.961-4.127s4.076-6.231 4.076-9.959l-.003-183.176h14.088c5.104 0 9.796-2.752 12.286-7.195 2.49-4.456 2.393-9.904-.275-14.252zm-138.705 190.582-169.224-.014.069-.034v-140.883h152.329c6.453 0 11.997 0 16.73-.041v140.923s.096.049.096.049zm98.521-197.284c-3.742 0-7.319 1.486-9.961 4.127-2.642 2.642-4.127 6.232-4.127 9.961l.055 183.202-56.408-.005v-155.02-.041c-.028-7.815-7.539-14.432-14.226-14.047-4.485.014-197.098.014-197.098.014-3.742-.014-7.319 1.472-9.961 4.114s-4.127 6.219-4.127 9.961v155.002l-56.381-.005.028-183.175c0-3.728-1.486-7.319-4.127-9.961-2.642-2.642-6.219-4.127-9.961-4.127h-3.027l59.669-97.462 126.505-42.636 126.506 42.636 59.669 97.462z"/><path d="m245.336 120.956c11.004 11.004 11.004 28.844 0 39.847-11.004 11.004-28.844 11.004-39.847 0-11.004-11.004-11.004-28.844 0-39.847 11.003-11.004 28.843-11.004 39.847 0"/></svg>