<svg width="512" height="512" viewBox="0 0 512 512" fill="none" xmlns="http://www.w3.org/2000/svg">
<rect width="512" height="512" fill="url(#paint0_linear)"/>
<path d="M278 16L206 30L134 58L84 149L74 293L113 407L166 483L218 491L224 462L212 396L224 350L259 319L296 350V437L287 477L321 497L403 396L435 299L426 149L364 58L278 16Z" fill="#FF9534" stroke="black"/>
<path d="M286 307L267 265H238L233 297L255 322L286 307Z" fill="#FFFCFC"/>
<path d="M444.687 138.679C434.585 110.519 419.929 85.632 401.124 64.709C363.621 22.981 312.081 0 256 0C199.919 0 148.378 22.981 110.875 64.709C92.071 85.631 77.414 110.518 67.312 138.679C56.849 167.844 51.545 199.85 51.545 233.809C51.545 283.343 63.079 337.242 84.025 385.58C105.41 434.933 135.749 476.271 169.453 501.982C178.144 508.611 188.471 512 198.899 512C206.242 512 213.636 510.318 220.537 506.902C237.235 498.638 247.607 481.932 247.607 463.301C247.607 452.914 244.327 442.938 238.121 434.453C230.165 423.573 225.602 407.509 225.602 390.377C225.602 357.665 241.622 334.869 256 334.867C256 334.867 256.001 334.867 256.002 334.867C270.381 334.868 286.401 357.665 286.401 390.377C286.401 407.508 281.838 423.573 273.881 434.454C267.676 442.94 264.395 452.916 264.395 463.302C264.395 481.932 274.768 498.638 291.465 506.902C308.161 515.165 327.736 513.28 342.55 501.982C376.253 476.271 406.592 434.933 427.977 385.58C448.92 337.242 460.456 283.342 460.456 233.809C460.454 199.85 455.149 167.844 444.687 138.679ZM400.323 115.06C382.948 113.741 364.881 115.691 352.518 117.627C324.574 122.001 296.036 130.794 271.098 142.501V88.013L309.423 38.817C347.567 51.735 379.057 78.55 400.323 115.06ZM256 30.186C263.108 30.186 270.073 30.626 276.89 31.456L255.999 58.273L235.108 31.456C241.926 30.626 248.892 30.186 256 30.186ZM207.146 479.848C200.712 483.032 193.465 482.333 187.76 477.981C152.172 450.833 122.238 404.954 103.348 352.763C110.289 354.386 117.54 355.075 125.007 355.075C145.03 355.075 166.595 350.168 187.819 345.337C193.855 343.964 199.946 342.58 206.054 341.286C199.328 355.106 195.414 371.972 195.414 390.375C195.414 414.117 201.927 436.099 213.754 452.27C216.152 455.549 217.42 459.363 217.42 463.3C217.42 470.479 213.579 476.665 207.146 479.848ZM240.91 249.153C223.956 255.334 211.818 271.616 211.818 290.681C211.818 297.078 213.196 303.155 215.652 308.648C203.985 310.708 192.462 313.323 181.121 315.903C137.225 325.895 108.881 331.145 91.302 312.473C85.119 286.529 81.731 259.864 81.731 233.809C81.731 202.913 86.765 174.242 95.997 148.739C105.935 144.737 126.48 143.014 154.818 147.45C185.057 152.183 215.931 162.602 240.91 176.354V249.153V249.153ZM240.91 142.501C215.971 130.794 187.432 121.999 159.487 117.625C147.121 115.69 129.053 113.739 111.677 115.058C132.942 78.55 164.432 51.734 202.578 38.815L240.911 88.021V142.501H240.91ZM256.003 304.68C248.283 304.68 242.005 298.4 242.005 290.682C242.005 282.964 248.285 276.684 256.003 276.684C263.722 276.684 270.002 282.964 270.002 290.682C270.002 298.4 263.723 304.68 256.003 304.68ZM324.24 477.981C318.535 482.334 311.288 483.032 304.853 479.848C298.42 476.663 294.58 470.478 294.58 463.302C294.58 459.366 295.848 455.551 298.246 452.273C310.073 436.1 316.587 414.119 316.587 390.378C316.587 371.973 312.673 355.107 305.946 341.288C312.056 342.583 318.149 343.967 324.188 345.34C345.415 350.171 366.974 355.078 387 355.078C394.464 355.078 401.713 354.39 408.652 352.767C389.761 404.955 359.827 450.834 324.24 477.981ZM420.694 312.481C403.117 331.142 374.775 325.892 330.886 315.904C319.546 313.323 308.023 310.709 296.355 308.649C298.811 303.155 300.189 297.078 300.189 290.681C300.189 271.616 288.051 255.335 271.097 249.153V176.35C296.074 162.599 326.946 152.182 357.185 147.448C385.517 143.013 406.062 144.735 416.001 148.735C425.234 174.238 430.267 202.91 430.267 233.807C430.268 259.866 426.88 286.534 420.694 312.481Z" fill="black"/>
<defs>
<linearGradient id="paint0_linear" x1="256" y1="0" x2="256" y2="512" gradientUnits="userSpaceOnUse">
<stop stop-color="white"/>
<stop offset="1" stop-color="white" stop-opacity="0"/>
</linearGradient>
</defs>
</svg>
