<svg id="Capa_1" enable-background="new 0 0 512 512" height="512" viewBox="0 0 512 512" width="512" xmlns="http://www.w3.org/2000/svg"><path d="m399.533 201.727v-58.194c0-79.144-64.388-143.533-143.533-143.533s-143.533 64.389-143.533 143.533v58.194c-72.308 77.024-70.843 198.51 4.387 273.74 18.891 18.882 32.135 32.135 32.136 32.136 2.813 2.815 6.63 4.396 10.61 4.396h192.8c3.98 0 7.796-1.582 10.61-4.396.001-.001 13.246-13.254 32.136-32.136 75.23-75.23 76.695-196.716 4.387-273.74zm-261.531 16.751c2.854-2.815 4.465-6.66 4.465-10.678v-64.267c0-62.602 50.93-113.533 113.533-113.533s113.533 50.931 113.533 113.533v64.267c0 4.019 1.612 7.863 4.465 10.678 7.054 7.062 13.34 14.604 18.862 22.522h-47.876c-7.121-16.651-19.785-30.381-35.658-38.872 15.928-14.508 25.94-35.404 25.94-58.595 0-43.708-35.559-79.267-79.267-79.267s-79.267 35.559-79.267 79.267c0 23.191 10.012 44.087 25.94 58.595-15.873 8.491-28.537 22.221-35.658 38.872h-47.874c5.521-7.918 11.807-15.46 18.862-22.522zm68.731-74.945c0-27.166 22.101-49.267 49.267-49.267s49.267 22.101 49.267 49.267-22.101 49.267-49.267 49.267-49.267-22.101-49.267-49.267zm34.267 79.267v1.067c0 27.166-22.101 49.267-49.267 49.267h-1.067v-1.066c0-27.166 22.101-49.267 49.267-49.267h1.067zm30 0h1.067c27.166 0 49.267 22.101 49.267 49.267v1.066h-1.067c-27.166 0-49.267-22.101-49.267-49.267zm102.935 231.452c-12.395 12.389-22.36 22.356-27.75 27.748h-180.37c-5.39-5.392-15.356-15.359-27.75-27.748-49.457-49.458-61.288-122.502-35.507-183.252h58.135c-.005.357-.027.709-.027 1.067v16.066c0 8.284 6.716 15 15 15h16.067c26.426 0 49.856-13.011 64.267-32.949 14.41 19.939 37.841 32.949 64.267 32.949h16.067c8.284 0 15-6.716 15-15v-16.066c0-.358-.022-.71-.027-1.067h58.135c25.781 60.75 13.95 133.794-35.507 183.252z"/></svg>