<svg id="Capa_1" enable-background="new 0 0 512 512" height="512" viewBox="0 0 512 512" width="512" xmlns="http://www.w3.org/2000/svg"><path d="m305.267 143.533c0-27.166-22.101-49.267-49.267-49.267s-49.267 22.101-49.267 49.267 22.101 49.267 49.267 49.267 49.267-22.101 49.267-49.267z"/><path d="m202.674 202.128c-15.928-14.508-25.94-35.404-25.94-58.595 0-43.708 35.559-79.267 79.267-79.267s79.267 35.559 79.267 79.267c0 23.191-10.012 44.087-25.94 58.595 15.873 8.491 28.537 22.221 35.658 38.872h83.178c-7.721-13.954-17.262-27.164-28.63-39.273v-58.194c-.001-79.144-64.389-143.533-143.534-143.533s-143.533 64.389-143.533 143.533v58.194c-11.368 12.109-20.909 25.318-28.63 39.273h83.178c7.121-16.651 19.785-30.381 35.659-38.872z"/><path d="m190.667 272.067v1.066h1.067c27.166 0 49.267-22.101 49.267-49.267v-1.066h-1.067c-27.166 0-49.267 22.101-49.267 49.267z"/><path d="m441.6 271h-90.294c.005.357.027.709.027 1.067v16.066c0 8.284-6.716 15-15 15h-16.067c-26.426 0-49.856-13.011-64.267-32.949-14.41 19.939-37.841 32.949-64.267 32.949h-16.067c-8.284 0-15-6.716-15-15v-16.066c0-.358.022-.71.027-1.067h-90.292c-24.229 69.169-8.745 149.269 46.454 204.467 18.891 18.882 32.135 32.135 32.136 32.136 2.813 2.815 6.63 4.396 10.61 4.396h192.8c3.98 0 7.796-1.582 10.61-4.396.001-.001 13.246-13.254 32.136-32.136 55.199-55.198 70.683-135.298 46.454-204.467z"/><path d="m320.267 273.133h1.067v-1.066c0-27.166-22.101-49.267-49.267-49.267h-1.067v1.067c0 27.165 22.101 49.266 49.267 49.266z"/></svg>