<svg width="512" height="512" viewBox="0 0 512 512" fill="none" xmlns="http://www.w3.org/2000/svg">
<g clip-path="url(#clip0)">
<path d="M110 268L72.5 399.5L83 417.5L201 338.5L404.5 284.5L445 168L350.5 91.5L270 103.5L110 268Z" fill="#FA4646" stroke="black"/>
<path d="M309 214.5V181.5H346V214.5H309Z" fill="#FFFCFC" stroke="black"/>
<path d="M486.47 108.123C461.427 65.3961 421.246 34.9801 373.326 22.4771C325.404 9.97107 275.485 16.8781 232.76 41.9211C166.802 80.5791 96.906 155.668 50.345 237.883C-0.553024 327.757 -13.589 406.863 14.577 454.92C25.685 473.872 43.508 487.364 64.765 492.91C71.686 494.717 78.7 495.609 85.668 495.609C100.1 495.608 114.335 491.776 127.115 484.286C138.713 477.489 151.881 461.318 154.402 458.145C154.655 457.828 154.895 457.498 155.122 457.16C188.819 406.867 266.09 393.461 337.3 387.006C366.336 385.334 395.02 376.634 420.27 361.834C462.997 336.791 493.413 296.61 505.916 248.69C518.419 200.769 511.514 150.848 486.47 108.123ZM476.859 241.108C466.38 281.267 440.889 314.941 405.084 335.928C383.549 348.549 360.09 355.653 335.355 357.04C335.184 357.05 335.014 357.062 334.842 357.077C256.744 364.141 171.449 379.512 130.543 439.9C125.621 446.009 116.845 455.499 111.931 458.38C99.899 465.433 85.839 467.378 72.345 463.857C58.85 460.335 47.533 451.77 40.482 439.737C18.208 401.733 31.662 331.807 76.473 252.68C120.579 174.798 186.283 103.966 247.943 67.8261C283.75 46.8381 325.586 41.0521 365.744 51.5301C405.903 62.0101 439.577 87.5001 460.564 123.306C481.553 159.113 487.339 200.949 476.859 241.108Z" fill="black"/>
<path d="M435.94 137.741C418.83 108.553 391.337 87.764 358.524 79.202C325.711 70.64 291.565 75.344 262.377 92.452C205.674 125.687 142.452 194.103 101.311 266.747C81.193 302.271 67.47 336.59 61.627 365.989C58.668 380.874 55.186 408.373 65.108 425.298C69.462 432.729 77.318 437.009 85.52 437.009C88.249 437.009 91.018 436.535 93.706 435.545C95.623 434.839 97.374 433.749 98.856 432.344C101.202 430.116 104.489 426.568 107.231 423.304C107.52 422.959 107.794 422.602 108.051 422.233C121.787 402.522 140.349 385.729 163.222 372.323C213.687 342.744 276.999 333.646 332.257 328.649L333.758 328.539C353.922 327.409 373.065 321.61 390.651 311.302C450.988 275.936 471.304 198.078 435.94 137.741ZM375.466 285.395C362.033 293.268 347.435 297.697 332.052 298.558L331.053 298.617C330.897 298.626 330.74 298.638 330.584 298.651L329.569 298.741C270.987 304.039 203.606 313.846 148.036 346.416C124.158 360.411 104.217 377.714 88.649 397.922C88.377 391.412 88.933 382.636 91.078 371.843C96.306 345.543 108.879 314.318 127.439 281.543C166.162 213.168 225.089 149.112 277.561 118.357C292.563 109.565 309.284 105.068 326.261 105.068C334.483 105.068 342.766 106.123 350.941 108.257C375.993 114.794 396.979 130.657 410.03 152.925C437.025 198.977 421.517 258.403 375.466 285.395Z" fill="black"/>
<path d="M360.184 177.615C348.159 157.097 321.684 150.19 301.169 162.216C280.652 174.24 273.744 200.715 285.768 221.234C291.592 231.173 300.94 238.249 312.087 241.156C315.716 242.103 319.395 242.571 323.048 242.571C330.618 242.571 338.083 240.561 344.785 236.632C354.724 230.808 361.799 221.46 364.708 210.313C367.617 199.165 366.01 187.554 360.184 177.615ZM335.653 202.732C334.769 206.118 332.62 208.958 329.6 210.727C326.58 212.497 323.052 212.985 319.667 212.1C316.281 211.216 313.441 209.068 311.673 206.049C308.021 199.815 310.119 191.773 316.351 188.12C318.428 186.903 320.706 186.324 322.955 186.324C327.456 186.324 331.843 188.641 334.279 192.798C336.05 195.818 336.537 199.345 335.653 202.732Z" fill="black"/>
</g>
<defs>
<clipPath id="clip0">
<rect width="512" height="512" fill="white"/>
</clipPath>
</defs>
</svg>
