<?xml version="1.0" encoding="iso-8859-1"?>
<!-- Generator: Adobe Illustrator 19.0.0, SVG Export Plug-In . SVG Version: 6.00 Build 0)  -->
<svg version="1.1" id="Capa_1" xmlns="http://www.w3.org/2000/svg" xmlns:xlink="http://www.w3.org/1999/xlink" x="0px" y="0px"
	 viewBox="0 0 512 512" style="enable-background:new 0 0 512 512;" xml:space="preserve">
<g>
	<g>
		<path d="M486.47,108.123c-25.043-42.727-65.224-73.143-113.144-85.646c-47.922-12.506-97.841-5.599-140.566,19.444
			C166.802,80.579,96.906,155.668,50.345,237.883c-50.898,89.874-63.934,168.98-35.768,217.037
			c11.108,18.952,28.931,32.444,50.188,37.99c6.921,1.807,13.935,2.699,20.903,2.699c14.432-0.001,28.667-3.833,41.447-11.323
			c11.598-6.797,24.766-22.968,27.287-26.141c0.253-0.317,0.493-0.647,0.72-0.985c33.697-50.293,110.968-63.699,182.178-70.154
			c29.036-1.672,57.72-10.372,82.97-25.172c42.727-25.043,73.143-65.224,85.646-113.144
			C518.419,200.769,511.514,150.848,486.47,108.123z M476.859,241.108c-10.479,40.159-35.97,73.833-71.775,94.82
			c-21.535,12.621-44.994,19.725-69.729,21.112c-0.171,0.01-0.341,0.022-0.513,0.037c-78.098,7.064-163.393,22.435-204.299,82.823
			c-4.922,6.109-13.698,15.599-18.612,18.48c-12.032,7.053-26.092,8.998-39.586,5.477c-13.495-3.522-24.812-12.087-31.863-24.12
			c-22.274-38.004-8.82-107.93,35.991-187.057c44.106-77.882,109.81-148.714,171.47-184.854
			c35.807-20.988,77.643-26.774,117.801-16.296c40.159,10.48,73.833,35.97,94.82,71.776
			C481.553,159.113,487.339,200.949,476.859,241.108z"/>
	</g>
</g>
<g>
	<g>
		<path d="M435.94,137.741c-17.11-29.188-44.603-49.977-77.416-58.539c-32.813-8.562-66.959-3.858-96.147,13.25
			c-56.703,33.235-119.925,101.651-161.066,174.295c-20.118,35.524-33.841,69.843-39.684,99.242
			c-2.959,14.885-6.441,42.384,3.481,59.309c4.354,7.431,12.21,11.711,20.412,11.711c2.729,0,5.498-0.474,8.186-1.464
			c1.917-0.706,3.668-1.796,5.15-3.201c2.346-2.228,5.633-5.776,8.375-9.04c0.289-0.345,0.563-0.702,0.82-1.071
			c13.736-19.711,32.298-36.504,55.171-49.91c50.465-29.579,113.777-38.677,169.035-43.674l1.501-0.11
			c20.164-1.13,39.307-6.929,56.893-17.237C450.988,275.936,471.304,198.078,435.94,137.741z M375.466,285.395
			c-13.433,7.873-28.031,12.302-43.414,13.163l-0.999,0.059c-0.156,0.009-0.313,0.021-0.469,0.034l-1.015,0.09
			c-58.582,5.298-125.963,15.105-181.533,47.675c-23.878,13.995-43.819,31.298-59.387,51.506c-0.272-6.51,0.284-15.286,2.429-26.079
			c5.228-26.3,17.801-57.525,36.361-90.3c38.723-68.375,97.65-132.431,150.122-163.186c15.002-8.792,31.723-13.289,48.7-13.289
			c8.222,0,16.505,1.055,24.68,3.189c25.052,6.537,46.038,22.4,59.089,44.668C437.025,198.977,421.517,258.403,375.466,285.395z"/>
	</g>
</g>
<g>
	<g>
		<path d="M360.184,177.615c-12.025-20.518-38.5-27.425-59.015-15.399c-20.517,12.024-27.425,38.499-15.401,59.018
			c5.824,9.939,15.172,17.015,26.319,19.922c3.629,0.947,7.308,1.415,10.961,1.415c7.57,0,15.035-2.01,21.737-5.939
			c9.939-5.824,17.014-15.172,19.923-26.319C367.617,199.165,366.01,187.554,360.184,177.615z M335.653,202.732
			c-0.884,3.386-3.033,6.226-6.053,7.995c-3.02,1.77-6.548,2.258-9.933,1.373c-3.386-0.884-6.226-3.032-7.994-6.051
			c-3.652-6.234-1.554-14.276,4.678-17.929c2.077-1.217,4.355-1.796,6.604-1.796c4.501,0,8.888,2.317,11.324,6.474
			C336.05,195.818,336.537,199.345,335.653,202.732z"/>
	</g>
</g>
<g>
</g>
<g>
</g>
<g>
</g>
<g>
</g>
<g>
</g>
<g>
</g>
<g>
</g>
<g>
</g>
<g>
</g>
<g>
</g>
<g>
</g>
<g>
</g>
<g>
</g>
<g>
</g>
<g>
</g>
</svg>
