<svg width="512" height="512" viewBox="0 0 512 512" fill="none" xmlns="http://www.w3.org/2000/svg">
<g clip-path="url(#clip0)">
<path d="M325.5 448L289.5 498.5L173 472L87.5 352L41 307.5L50 255L16 222V189L57.5 143L75.5 87.5L144.5 69.5L156.5 38.5L223.5 14.5L289.5 48.5L367 14.5L422.5 48.5L451 110L485 134L498.5 189L451 255L470.5 307.5H395.5L349 319.5L313.5 376L325.5 448Z" fill="#AEFB9B" stroke="black"/>
<path d="M29.6875 264.059C22.9492 279.527 21.4922 295.941 25.6563 311.484C32.0274 335.277 49.8125 354.219 72.9571 362.449C82.3164 383.762 102.309 417.961 128.57 450.773C181.523 516.93 256.172 511.734 257.293 511.988C281.621 511.988 305.023 500.492 319.902 481.242C334.793 461.973 340.141 435.016 333.859 410.898C331.781 402.902 330.969 396.91 330.969 389.527C330.969 345.215 372.492 311.418 416.508 320.223L464.008 329.723C471.988 331.32 479.785 326.262 481.578 318.328C484.879 303.73 486.797 284.422 472.188 264.469C470.465 262.117 468.594 259.906 466.582 257.848C493.75 242.313 511.945 213.113 511.945 180.035C511.945 141.336 487.371 107.703 451.785 95.2813C451.895 93.5274 451.953 91.7852 451.953 90.0469C451.953 40.4297 411.582 0.0586166 361.965 0.0586166C332.488 0.0586166 305.039 14.3438 288.203 37.5039C288.016 37.4141 287.828 37.3281 287.641 37.2383C265.828 7.05471 227.785 -6.6367 191.457 3.09768C163.477 10.5977 141.012 31.3985 130.84 58.0977C119.879 55.9649 108.688 56.3321 97.8125 59.2461C78.4571 64.4297 62.4453 76.9141 52.7305 94.3985C45.3946 107.602 42.2656 122.52 43.543 137.484C11.7852 152.496 -7.10544 188.66 2.51565 224.563C6.68362 240.125 16.3086 253.957 29.6875 264.059V264.059ZM296.629 72.961C301.105 71.918 304.852 68.8828 306.805 64.7227C316.68 43.6641 338.332 30.0547 361.965 30.0547C395.043 30.0547 421.957 56.9649 421.957 90.0469C421.957 94.1758 421.453 98.4492 420.418 103.105C418.566 111.43 424.023 119.641 432.445 121.133C461.129 126.207 481.949 150.977 481.949 180.031C481.949 211.441 457.242 237.598 425.699 239.582C417.859 240.074 411.727 246.535 411.645 254.391C411.559 262.242 417.551 268.836 425.379 269.496C434.398 270.258 442.637 274.883 447.984 282.188C451.465 286.938 453.348 291.57 453.785 297.086L422.391 290.809C359.793 278.289 300.973 326.301 300.973 389.527C300.973 399.543 302.09 407.922 304.832 418.453C308.762 433.551 305.359 451 296.164 462.898C293.668 466.129 290.785 468.996 287.609 471.477C287.609 471.477 250.707 321.828 250.25 319.648L292.68 298.434C300.09 294.73 303.09 285.723 299.387 278.313C295.684 270.902 286.676 267.898 279.266 271.605L246.723 287.875C246.477 273.082 248.133 258.258 251.727 243.871C260.066 210.527 282.875 182.738 314.031 168.168L368.191 207.199C374.91 212.039 384.285 210.523 389.125 203.801C393.969 197.078 392.449 187.707 385.727 182.863L349.953 157.082L380.523 149.609C388.57 147.641 393.496 139.523 391.527 131.477C389.563 123.43 381.453 118.504 373.398 120.469L327.535 131.684C294.242 140.008 265.75 159.617 246.199 186.316L240.605 161.711C238.77 153.633 230.73 148.574 222.656 150.41C214.578 152.246 209.52 160.285 211.355 168.363L224.984 228.293C224.125 231.027 223.328 233.789 222.629 236.594C214.414 269.438 215.047 303.129 222.617 333.402L258.242 477.676C215.484 431.102 188.668 370.625 182.387 306.043C181.906 301.094 179.004 296.707 174.637 294.324C160.051 286.371 150.988 271.313 150.988 255.023C150.988 242.063 156.516 230.094 166.555 221.32C169.813 218.473 171.68 214.355 171.68 210.027C171.68 205.703 169.813 201.586 166.555 198.738C156.516 189.965 150.988 177.996 150.988 165.035C150.988 140.227 171.176 120.043 195.984 120.043C204.266 120.043 210.98 113.324 210.98 105.043C210.98 80.2344 231.168 60.0508 255.977 60.0508C266.012 60.0508 275.656 63.5156 283.859 70.0703C287.453 72.9375 292.156 74.0039 296.629 72.961V72.961ZM64.3047 161.695C72.3047 159.551 77.0547 151.328 74.9102 143.324C71.75 131.543 73.1875 119.34 78.9492 108.969C84.6836 98.6524 94.1367 91.2852 105.574 88.2188C115.27 85.6211 125.477 86.4727 135.102 90.6836C139.309 92.5235 144.129 92.336 148.18 90.168C152.23 88.0039 155.066 84.1016 155.875 79.5781C159.965 56.6797 176.977 38.0313 199.219 32.0742C211.113 28.8867 223.285 29.4649 234.316 33.2617C207.773 41.2852 187.391 63.6485 182.25 91.3086C147.438 97.7774 120.996 128.379 120.996 165.035C120.996 181.332 126.438 197.102 136.266 210.031C126.438 222.957 120.996 238.727 120.996 255.023C120.996 279.594 133.207 302.438 153.344 316.383C160.637 377.078 184.57 432.602 218.219 476.578C192.398 468.988 169.297 453.652 151.988 432.027C125.867 399.395 105.137 363.484 98.1602 344.875C96.4141 340.219 92.4727 336.734 87.6406 335.563C71.4922 331.656 58.8438 319.457 54.625 303.723C50.3867 287.898 57.4805 274.012 62.0899 267.141C64.5 263.543 65.2383 259.086 64.1172 254.906C62.9961 250.727 60.1289 247.234 56.2422 245.324C43.7188 239.176 34.6953 228.777 31.4883 216.801C25.086 192.918 40.1406 168.168 64.3047 161.695V161.695Z" fill="black"/>
</g>
<defs>
<clipPath id="clip0">
<rect width="512" height="512" fill="white"/>
</clipPath>
</defs>
</svg>
