<svg height="512pt" viewBox="0 0 512 512.00053" width="512pt" xmlns="http://www.w3.org/2000/svg"><path d="m29.6875 264.058594c-6.738281 15.46875-8.195312 31.882812-4.03125 47.425781 6.371094 23.792969 24.15625 42.734375 47.300781 50.964844 9.359375 21.3125 29.351563 55.511719 55.613281 88.324219 52.953126 66.15625 127.601563 60.960937 128.722657 61.214843 24.328125 0 47.730469-11.496093 62.609375-30.746093 14.890625-19.269532 20.238281-46.226563 13.957031-70.34375-2.078125-7.996094-2.890625-13.988282-2.890625-21.371094 0-44.3125 41.523438-78.109375 85.539062-69.304688l47.5 9.5c7.980469 1.597656 15.777344-3.460937 17.570313-11.394531 3.300781-14.597656 5.21875-33.90625-9.390625-53.859375-1.722656-2.351562-3.59375-4.5625-5.605469-6.621094 27.167969-15.535156 45.363281-44.734375 45.363281-77.8125 0-38.699218-24.574218-72.332031-60.160156-84.753906.109375-1.753906.167969-3.496094.167969-5.234375 0-49.617187-40.371094-89.9882812-89.988281-89.9882812-29.476563 0-56.925782 14.2851562-73.761719 37.4453122-.1875-.089844-.375-.175781-.5625-.265625-21.8125-30.183593-59.855469-43.875-96.183594-34.140625-27.980469 7.5-50.445312 28.300782-60.617187 55-10.960938-2.132812-22.152344-1.765625-33.027344 1.148438-19.355469 5.183594-35.367188 17.667968-45.082031 35.152344-7.335938 13.203124-10.464844 28.121093-9.1875 43.085937-31.757813 15.011719-50.648438 51.175781-41.027344 87.078125 4.167969 15.5625 13.792969 29.394531 27.171875 39.496094zm266.941406-191.097656c4.476563-1.042969 8.222656-4.078126 10.175782-8.238282 9.875-21.058594 31.527343-34.667968 55.160156-34.667968 33.078125 0 59.992187 26.910156 59.992187 59.992187 0 4.128906-.503906 8.402344-1.539062 13.058594-1.851563 8.324219 3.605469 16.535156 12.027343 18.027343 28.683594 5.074219 49.503907 29.84375 49.503907 58.898438 0 31.410156-24.707031 57.566406-56.25 59.550781-7.839844.492188-13.972657 6.953125-14.054688 14.808594-.085937 7.851563 5.90625 14.445313 13.734375 15.105469 9.019532.761718 17.257813 5.386718 22.605469 12.691406 3.480469 4.75 5.363281 9.382812 5.800781 14.898438l-31.394531-6.277344c-62.597656-12.519532-121.417969 35.492187-121.417969 98.71875 0 10.015625 1.117188 18.394531 3.859375 28.925781 3.929688 15.097656.527344 32.546875-8.667969 44.445313-2.496093 3.230468-5.378906 6.097656-8.554687 8.578124 0 0-36.902344-149.648437-37.359375-151.828124l42.429688-21.214844c7.410156-3.703125 10.410156-12.710938 6.707031-20.121094s-12.710938-10.414062-20.121094-6.707031l-32.542969 16.269531c-.246094-14.792969 1.410156-29.617188 5.003906-44.003906 8.339844-33.34375 31.148438-61.132813 62.304688-75.703125l54.160156 39.03125c6.71875 4.839843 16.09375 3.324219 20.933594-3.398438 4.84375-6.722656 3.324219-16.09375-3.398438-20.9375l-35.773437-25.78125 30.570313-7.472656c8.046874-1.96875 12.972656-10.085937 11.003906-18.132813-1.964844-8.046874-10.074219-12.972656-18.128906-11.007812l-45.863282 11.214844c-33.292968 8.324218-61.785156 27.933594-81.335937 54.632812l-5.59375-24.605468c-1.835938-8.078126-9.875-13.136719-17.949219-11.300782-8.078125 1.835938-13.136719 9.875-11.300781 17.953125l13.628906 59.929688c-.859375 2.734375-1.65625 5.496093-2.355469 8.300781-8.214844 32.84375-7.582031 66.535156-.011718 96.808594l35.625 144.273437c-42.757813-46.574219-69.574219-107.050781-75.855469-171.632812-.480469-4.949219-3.382813-9.335938-7.75-11.71875-14.585938-7.953125-23.648438-23.011719-23.648438-39.300781 0-12.960938 5.527344-24.929688 15.566407-33.703126 3.257812-2.847656 5.125-6.964843 5.125-11.292968 0-4.324219-1.867188-8.441406-5.125-11.289063-10.039063-8.773437-15.566407-20.742187-15.566407-33.703125 0-24.808594 20.1875-44.992187 44.996094-44.992187 8.28125 0 14.996094-6.71875 14.996094-15 0-24.808594 20.1875-44.992188 44.996093-44.992188 10.035157 0 19.679688 3.464844 27.882813 10.019531 3.59375 2.867188 8.296875 3.933594 12.769531 2.890626zm-232.324218 88.734374c8-2.144531 12.75-10.367187 10.605468-18.371093-3.160156-11.78125-1.722656-23.984375 4.039063-34.355469 5.734375-10.316406 15.1875-17.683594 26.625-20.75 9.695312-2.597656 19.902343-1.746094 29.527343 2.464844 4.207032 1.839844 9.027344 1.652344 13.078126-.515625 4.050781-2.164063 6.886718-6.066407 7.695312-10.589844 4.089844-22.898437 21.101562-41.546875 43.34375-47.503906 11.894531-3.1875 24.066406-2.609375 35.097656 1.1875-26.542968 8.023437-46.925781 30.386719-52.066406 58.046875-34.8125 6.46875-61.253906 37.070312-61.253906 73.726562 0 16.296875 5.441406 32.066406 15.269531 44.996094-9.828125 12.925781-15.269531 28.695312-15.269531 44.992188 0 24.570312 12.210937 47.414062 32.347656 61.359374 7.292969 60.695313 31.226562 116.21875 64.875 160.195313-25.820312-7.589844-48.921875-22.925781-66.230469-44.550781-26.121093-32.632813-46.851562-68.542969-53.828125-87.152344-1.746094-4.65625-5.6875-8.140625-10.519531-9.3125-16.148437-3.90625-28.796875-16.105469-33.015625-31.839844-4.238281-15.824218 2.855469-29.710937 7.464844-36.582031 2.410156-3.597656 3.148437-8.054687 2.027344-12.234375-1.121094-4.179688-3.988282-7.671875-7.875-9.582031-12.523438-6.148438-21.546876-16.546875-24.753907-28.523438-6.402343-23.882812 8.652344-48.632812 32.816407-55.105469zm0 0"/></svg>