<?xml version="1.0" encoding="iso-8859-1"?>
<!-- Generator: Adobe Illustrator 19.0.0, SVG Export Plug-In . SVG Version: 6.00 Build 0)  -->
<svg version="1.1" id="Layer_1" xmlns="http://www.w3.org/2000/svg" xmlns:xlink="http://www.w3.org/1999/xlink" x="0px" y="0px"
	 viewBox="0 0 512.001 512.001" style="enable-background:new 0 0 512.001 512.001;" xml:space="preserve">
<g>
	<g>
		<path d="M0,138.051c0,53.555,43.415,96.971,96.971,96.971c32.909,0,61.984-16.397,79.515-41.462
			c17.531,25.066,46.606,41.462,79.515,41.462s61.984-16.397,79.515-41.462c17.531,25.066,46.606,41.462,79.514,41.462
			c53.556,0,96.971-43.415,96.971-96.971H0z"/>
	</g>
</g>
<g>
	<g>
		<polygon points="432.215,7.734 79.785,7.734 12.344,108.052 499.656,108.052 		"/>
	</g>
</g>
<g>
	<g>
		<path d="M415.029,265.021c-29.232,0.001-57.221-10.108-79.514-28.003c-22.293,17.895-50.282,28.003-79.515,28.003
			c-29.233,0-57.221-10.109-79.515-28.003c-22.293,17.895-50.282,28.003-79.515,28.003c-29.745,0-57.927-10.161-80.586-28.837
			v268.082h160.379v-97.957c0-43.761,35.475-79.236,79.236-79.236s79.236,35.475,79.236,79.236v97.957h160.379l0.001-268.082
			C472.955,254.861,444.773,265.021,415.029,265.021z"/>
	</g>
</g>
<g>
</g>
<g>
</g>
<g>
</g>
<g>
</g>
<g>
</g>
<g>
</g>
<g>
</g>
<g>
</g>
<g>
</g>
<g>
</g>
<g>
</g>
<g>
</g>
<g>
</g>
<g>
</g>
<g>
</g>
</svg>
