<?xml version="1.0" encoding="iso-8859-1"?>
<!-- Generator: Adobe Illustrator 19.0.0, SVG Export Plug-In . SVG Version: 6.00 Build 0)  -->
<svg version="1.1" id="Layer_1" xmlns="http://www.w3.org/2000/svg" xmlns:xlink="http://www.w3.org/1999/xlink" x="0px" y="0px"
	 viewBox="0 0 512.001 512.001" style="enable-background:new 0 0 512.001 512.001;" xml:space="preserve">
<g>
	<g>
		<path d="M512,129.433L429.88,7.281H82.12L0,129.433v4.573c0,19.142,5.675,36.98,15.425,51.931V504.72h481.151l0.001-318.784
			c9.749-14.951,15.424-32.789,15.424-51.93L512,129.433L512,129.433z M98.101,37.281H413.9l54.942,81.726H43.159L98.101,37.281z
			 M319.576,149.006c-6.799,28.816-32.713,50.334-63.575,50.334c-30.863,0-56.777-21.518-63.576-50.334H319.576z M158.909,149.006
			c-6.799,28.816-32.713,50.334-63.576,50.334c-30.863,0-56.779-21.517-63.577-50.334H158.909z M315.594,474.72H196.407v-82.394
			c0-32.859,26.734-59.593,59.594-59.593c32.859,0,59.593,26.733,59.593,59.593V474.72z M466.575,474.72H345.593v0v-82.394
			c0-49.401-40.191-89.593-89.593-89.593s-89.593,40.191-89.593,89.593v82.394H45.425V215.199
			c14.526,8.962,31.623,14.141,49.909,14.141c33.702,0,63.375-17.58,80.333-44.05c16.958,26.47,46.632,44.05,80.333,44.05
			s63.375-17.58,80.333-44.05c16.958,26.47,46.633,44.05,80.334,44.05c18.286,0,35.383-5.179,49.909-14.142L466.575,474.72z
			 M416.668,199.34c-30.863,0-56.778-21.518-63.576-50.334h127.153C473.447,177.823,447.531,199.34,416.668,199.34z"/>
	</g>
</g>
<g>
</g>
<g>
</g>
<g>
</g>
<g>
</g>
<g>
</g>
<g>
</g>
<g>
</g>
<g>
</g>
<g>
</g>
<g>
</g>
<g>
</g>
<g>
</g>
<g>
</g>
<g>
</g>
<g>
</g>
</svg>
